<svg id="Layer_1" data-name="Layer 1" xmlns="http://www.w3.org/2000/svg" viewBox="0 0 212.44 100.15"><defs><style>.cls-1{fill:#9ad5ca;}.cls-2{fill:#55c0ac;}.cls-3{fill:#62c3b2;}.cls-4{fill:#f05735;}.cls-5{fill:#231f20;}</style></defs><title>logo</title><g id="_Group_" data-name="&lt;Group&gt;"><path id="_Path_" data-name="&lt;Path&gt;" class="cls-1" d="M51.44,62.6a3,3,0,0,0-2.55,1.46h-2.7a3,3,0,1,0,0,3h2.7a3,3,0,1,0,2.55-4.49Z" transform="translate(-1.78 -0.84)"/><path id="_Path_2" data-name="&lt;Path&gt;" class="cls-2" d="M59.41,53.79a3,3,0,0,0-2.55,1.47H54.4a3,3,0,0,0-5.11,0h-3.1a3,3,0,0,0-5.11,0H39.23a3,3,0,0,0-5.54,1.51,3,3,0,0,0,5.54,1.52h1.85a3,3,0,0,0,5.11,0h3.1a3,3,0,0,0,5.11,0h2.46a3,3,0,1,0,2.55-4.5Z" transform="translate(-1.78 -0.84)"/><path id="_Path_3" data-name="&lt;Path&gt;" class="cls-1" d="M43.64,50.83a3,3,0,0,0,2.55-1.47h2.7a3,3,0,1,0,0-3h-2.7a3,3,0,1,0-2.55,4.5Z" transform="translate(-1.78 -0.84)"/><path id="_Path_4" data-name="&lt;Path&gt;" class="cls-3" d="M46.41,27.63c-5.44-3.85-11.28-7.53-17-11a2.61,2.61,0,1,0-2.7,4.46C30.78,23.56,36.41,27,42.1,31l.51-.42C43.79,29.59,45.08,28.61,46.41,27.63Z" transform="translate(-1.78 -0.84)"/><path id="_Path_5" data-name="&lt;Path&gt;" class="cls-3" d="M70.32,56.17C69.24,48.29,63,40.8,54.54,33.79l-.51.36Q52,35.6,50.18,37c7.68,6.25,14.07,13.23,15,19.86S60.26,70.7,48.27,77.51q-2.52,1.42-5.42,2.85l-1.54.75C38.87,82.27,15.38,91.94,7,94.93V3.45a2.61,2.61,0,1,0-5.21,0v94.9A2.71,2.71,0,0,0,3,100.57a2.16,2.16,0,0,0,1.29.42C6,101,9.87,99.6,23.73,94c8.64-3.47,18.27-7.48,19.81-8.21s3.23-1.58,4.75-2.38c1.92-1,3.74-2,5.41-3.09C65.9,72.78,71.49,64.67,70.32,56.17Z" transform="translate(-1.78 -0.84)"/><path id="_Path_6" data-name="&lt;Path&gt;" class="cls-4" d="M70.78,17.49a2.61,2.61,0,0,0-3.58-.88c-6.62,4-13.07,8.16-18.83,12.4-1.5,1.09-2.95,2.2-4.34,3.31h0c-11,8.81-18.52,18-17.91,27.74.39,6.33,5.11,12.53,14,18.52.66-.28,1.15-.49,1.35-.59,1.48-.7,2.84-1.38,4.13-2.06-9-5.52-14-11-14.27-16.19-.5-7.93,6.8-16.22,17-24.19h0q2.1-1.63,4.35-3.25c5.38-3.87,11.3-7.64,17.2-11.23A2.61,2.61,0,0,0,70.78,17.49Z" transform="translate(-1.78 -0.84)"/><path id="_Path_7" data-name="&lt;Path&gt;" class="cls-4" d="M92.2.84a2.6,2.6,0,0,0-2.6,2.61V94.93C82,92.23,62.1,84.07,56.54,81.67,54.83,82.74,53,83.8,51,84.84c.66.33,1.33.66,2,1,1.54.73,11.17,4.74,19.81,8.21,13.86,5.57,17.77,7,19.42,7a2.16,2.16,0,0,0,1.29-.42,2.7,2.7,0,0,0,1.24-2.25V3.45A2.61,2.61,0,0,0,92.2.84Z" transform="translate(-1.78 -0.84)"/></g><g id="_Group_2" data-name="&lt;Group&gt;"><path id="_Compound_Path_" data-name="&lt;Compound Path&gt;" class="cls-5" d="M116.6,32V16.92h5.32A4.57,4.57,0,0,1,125.11,18a3.76,3.76,0,0,1,1.2,2.92A3.67,3.67,0,0,1,124.92,24a4,4,0,0,1,1.9,3.62,4.1,4.1,0,0,1-1.31,3.18A5,5,0,0,1,122,32Zm8-11.06a2.33,2.33,0,0,0-.51-1.57,2.86,2.86,0,0,0-2.2-.76h-3.65v4.65h3.89a2.64,2.64,0,0,0,2-.81A2.35,2.35,0,0,0,124.63,20.93ZM122,30.31a3.5,3.5,0,0,0,2.33-.69,2.48,2.48,0,0,0,.8-2,2.46,2.46,0,0,0-.8-2,3.45,3.45,0,0,0-2.33-.7h-3.74v5.38Z" transform="translate(-1.78 -0.84)"/><path id="_Compound_Path_2" data-name="&lt;Compound Path&gt;" class="cls-5" d="M130,20a1,1,0,0,1-.94-1,1,1,0,0,1,.28-.67.93.93,0,0,1,.66-.27.9.9,0,0,1,.67.27.92.92,0,0,1,.29.67,1,1,0,0,1-1,1Zm-.82,1.85h1.66V32h-1.66Z" transform="translate(-1.78 -0.84)"/><path id="_Compound_Path_3" data-name="&lt;Compound Path&gt;" class="cls-5" d="M136.7,31.87a4.13,4.13,0,0,1-2.62-1.65,5.48,5.48,0,0,1-.94-3.28,5.53,5.53,0,0,1,1-3.3A4.2,4.2,0,0,1,136.73,22l.11,0a6.43,6.43,0,0,1,1-.08,6.8,6.8,0,0,1,1,.08l.09,0a3.46,3.46,0,0,1,1.92,1.12V21.9h1.67V32.56a4.72,4.72,0,0,1-5,5A5.59,5.59,0,0,1,134.9,37a4.11,4.11,0,0,1-1.75-1.68l1.5-.75A2.62,2.62,0,0,0,136,35.68a4.29,4.29,0,0,0,1.54.25,3.33,3.33,0,0,0,2.48-.87,3.38,3.38,0,0,0,.87-2.5V30.75A3.44,3.44,0,0,1,139,31.87l-.11,0a5.71,5.71,0,0,1-1,.1,6,6,0,0,1-1-.1Zm1.14-8.32a2.87,2.87,0,0,0-2.25.88,3.65,3.65,0,0,0-.78,2.51,3.65,3.65,0,0,0,.78,2.5,3.35,3.35,0,0,0,4.48,0,3.62,3.62,0,0,0,.8-2.45v-.16a3.59,3.59,0,0,0-.8-2.44A2.88,2.88,0,0,0,137.84,23.55Z" transform="translate(-1.78 -0.84)"/><path id="_Compound_Path_4" data-name="&lt;Compound Path&gt;" class="cls-5" d="M161.88,24.46A8.33,8.33,0,0,1,160.2,30a5.68,5.68,0,0,1-4.59,2h-5V16.92h5a5.68,5.68,0,0,1,4.59,2A8.37,8.37,0,0,1,161.88,24.46Zm-9.59,5.85h3.32a4.08,4.08,0,0,0,3.4-1.53,6.85,6.85,0,0,0,1.21-4.32A6.9,6.9,0,0,0,159,20.13a4.08,4.08,0,0,0-3.4-1.53h-3.32Z" transform="translate(-1.78 -0.84)"/><path id="_Compound_Path_5" data-name="&lt;Compound Path&gt;" class="cls-5" d="M167.76,31.89l-.1,0A4.13,4.13,0,0,1,165,30.22a5.49,5.49,0,0,1-.95-3.28,5.41,5.41,0,0,1,1-3.29A4.15,4.15,0,0,1,167.69,22l.1,0a6.56,6.56,0,0,1,1-.08,5.5,5.5,0,0,1,1,.09l.1,0a3.31,3.31,0,0,1,1.91,1.13V21.9h1.68V32h-1.68V30.75a3.34,3.34,0,0,1-1.88,1.12l-.12,0a5.6,5.6,0,0,1-1,.1A5.73,5.73,0,0,1,167.76,31.89Zm-2-4.95a3.62,3.62,0,0,0,.78,2.5,3.33,3.33,0,0,0,4.49,0,3.61,3.61,0,0,0,.78-2.49v0a3.62,3.62,0,0,0-.78-2.5,3.33,3.33,0,0,0-4.49,0A3.65,3.65,0,0,0,165.77,26.94Z" transform="translate(-1.78 -0.84)"/><path id="_Compound_Path_6" data-name="&lt;Compound Path&gt;" class="cls-5" d="M177.25,23.77l-1.54-.17V21.93l1.54.18V18.53h1.67v3.58l1.54-.18V23.6l-1.54.17v5.15c0,.93.4,1.39,1.21,1.39h.32V32h-.32a2.76,2.76,0,0,1-2.09-.85,3.1,3.1,0,0,1-.8-2.22V23.77Z" transform="translate(-1.78 -0.84)"/><path id="_Compound_Path_7" data-name="&lt;Compound Path&gt;" class="cls-5" d="M185.42,31.89l-.1,0a4.13,4.13,0,0,1-2.62-1.65,5.48,5.48,0,0,1-.94-3.28,5.41,5.41,0,0,1,1-3.29A4.15,4.15,0,0,1,185.35,22l.1,0a6.66,6.66,0,0,1,1-.08,5.69,5.69,0,0,1,1,.09l.09,0a3.37,3.37,0,0,1,1.92,1.13V21.9h1.67V32h-1.67V30.75a3.33,3.33,0,0,1-1.89,1.12l-.11,0a5.71,5.71,0,0,1-1,.1A5.82,5.82,0,0,1,185.42,31.89Zm-2-4.95a3.62,3.62,0,0,0,.78,2.5,3.33,3.33,0,0,0,4.49,0,3.61,3.61,0,0,0,.79-2.49v0a3.62,3.62,0,0,0-.79-2.5,3.33,3.33,0,0,0-4.49,0A3.65,3.65,0,0,0,183.43,26.94Z" transform="translate(-1.78 -0.84)"/><path id="_Compound_Path_8" data-name="&lt;Compound Path&gt;" class="cls-5" d="M200.17,20a.89.89,0,0,1-.66-.29.91.91,0,0,1-.28-.67,1,1,0,0,1,.28-.67.91.91,0,0,1,.66-.27.9.9,0,0,1,.67.27.92.92,0,0,1,.29.67,1,1,0,0,1-1,1Zm-.82,1.85H201V32h-1.66Z" transform="translate(-1.78 -0.84)"/><path id="_Compound_Path_9" data-name="&lt;Compound Path&gt;" class="cls-5" d="M205.82,32h-1.68V21.9h1.68v.93a2.93,2.93,0,0,1,.67-.5,4.23,4.23,0,0,1,1.94-.43,4.28,4.28,0,0,1,1.94.43,3.93,3.93,0,0,1,1.72,1.77,6.16,6.16,0,0,1,.61,2.84v5H211v-5a4.05,4.05,0,0,0-.68-2.51,2.29,2.29,0,0,0-1.93-.87,2.32,2.32,0,0,0-1.89.81,3.83,3.83,0,0,0-.72,2.32Z" transform="translate(-1.78 -0.84)"/><path id="_Compound_Path_10" data-name="&lt;Compound Path&gt;" class="cls-5" d="M116.6,57.22V42.16h5.32a4.52,4.52,0,0,1,3.19,1.09,3.75,3.75,0,0,1,1.2,2.91,3.69,3.69,0,0,1-1.39,3.08,3.94,3.94,0,0,1,1.9,3.61A4.12,4.12,0,0,1,125.51,56a5,5,0,0,1-3.5,1.18Zm8-11.06a2.29,2.29,0,0,0-.51-1.56,2.82,2.82,0,0,0-2.2-.77h-3.65v4.66h3.89a2.71,2.71,0,0,0,2-.81A2.38,2.38,0,0,0,124.63,46.16ZM122,55.54a3.5,3.5,0,0,0,2.33-.69,2.89,2.89,0,0,0,0-4,3.5,3.5,0,0,0-2.33-.7h-3.74v5.38Z" transform="translate(-1.78 -0.84)"/><path id="_Compound_Path_11" data-name="&lt;Compound Path&gt;" class="cls-5" d="M130,45.27a.9.9,0,0,1-.66-.28.94.94,0,0,1,0-1.34.94.94,0,0,1,.66-.28.91.91,0,0,1,.67.28.92.92,0,0,1,0,1.34A.88.88,0,0,1,130,45.27Zm-.82,1.85h1.66v10.1h-1.66Z" transform="translate(-1.78 -0.84)"/><path id="_Compound_Path_12" data-name="&lt;Compound Path&gt;" class="cls-5" d="M142.54,52.17a5.19,5.19,0,0,1-1.27,3.68,5,5,0,0,1-6.85,0,5.16,5.16,0,0,1-1.28-3.68,5.15,5.15,0,0,1,1.28-3.67,4.94,4.94,0,0,1,6.85,0A5.19,5.19,0,0,1,142.54,52.17Zm-7.73,0a3.65,3.65,0,0,0,.78,2.51,3.37,3.37,0,0,0,4.5,0,4.41,4.41,0,0,0,0-5,3.34,3.34,0,0,0-4.5,0A3.62,3.62,0,0,0,134.81,52.17Z" transform="translate(-1.78 -0.84)"/><path id="_Compound_Path_13" data-name="&lt;Compound Path&gt;" class="cls-5" d="M146.43,57.22h-1.67V47.13h1.67v.94a3,3,0,0,1,.67-.51,4.36,4.36,0,0,1,1.94-.43,4.42,4.42,0,0,1,1.94.43,4,4,0,0,1,1.61,1.57,3.23,3.23,0,0,1,1.4-1.57,4.57,4.57,0,0,1,3.87,0,3.9,3.9,0,0,1,1.73,1.77,6.19,6.19,0,0,1,.61,2.84v5h-1.67v-5a4.11,4.11,0,0,0-.67-2.5,2.58,2.58,0,0,0-3.81-.06,3.72,3.72,0,0,0-.74,2.31v5.3h-1.66v-5a4,4,0,0,0-.68-2.5A2.29,2.29,0,0,0,149,48.8a2.32,2.32,0,0,0-1.89.81,3.8,3.8,0,0,0-.72,2.31Z" transform="translate(-1.78 -0.84)"/><path id="_Compound_Path_14" data-name="&lt;Compound Path&gt;" class="cls-5" d="M171.82,52.86h-7.69c0,.14,0,.24.05.32a3,3,0,0,0,.8,1.59,3.06,3.06,0,0,0,2.24.77,4.16,4.16,0,0,0,1.7-.33,2.55,2.55,0,0,0,1.12-.94l1.51.73a4.1,4.1,0,0,1-1.74,1.63,5.58,5.58,0,0,1-2.59.59,4.61,4.61,0,0,1-3.47-1.35,5.05,5.05,0,0,1-1.33-3.61v-.09a5.19,5.19,0,0,1,1.27-3.67,4.47,4.47,0,0,1,3.43-1.38,4.6,4.6,0,0,1,3.1,1.05,4.69,4.69,0,0,1,1.52,2.91,8.26,8.26,0,0,1,.08,1Zm-1.76-1.56a1.66,1.66,0,0,0,0-.24l0-.07a2.67,2.67,0,0,0-2.9-2.19,3,3,0,0,0-2.11.72,2.87,2.87,0,0,0-.79,1.47,2.24,2.24,0,0,0-.05.31Z" transform="translate(-1.78 -0.84)"/><path id="_Compound_Path_15" data-name="&lt;Compound Path&gt;" class="cls-5" d="M177.7,57.13l-.11,0A4.13,4.13,0,0,1,175,55.45a6.13,6.13,0,0,1,0-6.57,4.1,4.1,0,0,1,2.64-1.64l.1,0a5.5,5.5,0,0,1,1-.09,5.58,5.58,0,0,1,1,.1l.1,0a3.33,3.33,0,0,1,1.91,1.12v-6.2h1.68V57.22h-1.68V56a3.28,3.28,0,0,1-1.88,1.12l-.12,0a5.69,5.69,0,0,1-1,.09A5.75,5.75,0,0,1,177.7,57.13Zm-2-5a3.65,3.65,0,0,0,.78,2.51,3.36,3.36,0,0,0,4.49,0,3.64,3.64,0,0,0,.78-2.5v0a3.61,3.61,0,0,0-.78-2.49,3.33,3.33,0,0,0-4.49,0A3.62,3.62,0,0,0,175.71,52.17Z" transform="translate(-1.78 -0.84)"/><path id="_Compound_Path_16" data-name="&lt;Compound Path&gt;" class="cls-5" d="M187.36,45.27a.87.87,0,0,1-.66-.28.94.94,0,0,1,0-1.34.91.91,0,0,1,.66-.28.93.93,0,0,1,.67.28,1,1,0,0,1-.67,1.62Zm-.83,1.85h1.67v10.1h-1.67Z" transform="translate(-1.78 -0.84)"/><path id="_Compound_Path_17" data-name="&lt;Compound Path&gt;" class="cls-5" d="M199.32,54.93a4,4,0,0,1-1.64,1.69,4.94,4.94,0,0,1-2.45.6,4.48,4.48,0,0,1-3.43-1.37,5.92,5.92,0,0,1,0-7.35,4.45,4.45,0,0,1,3.43-1.38,4.93,4.93,0,0,1,2.44.6,4,4,0,0,1,1.63,1.68l-1.52.7a2.69,2.69,0,0,0-2.55-1.3,2.9,2.9,0,0,0-2.26.87,4.46,4.46,0,0,0,0,5,2.93,2.93,0,0,0,2.26.86,2.69,2.69,0,0,0,2.56-1.32Z" transform="translate(-1.78 -0.84)"/><path id="_Compound_Path_18" data-name="&lt;Compound Path&gt;" class="cls-5" d="M204.05,57.13l-.11,0a4.13,4.13,0,0,1-2.62-1.65,6.18,6.18,0,0,1,0-6.57A4.15,4.15,0,0,1,204,47.24l.11,0a5.39,5.39,0,0,1,1-.09,5.69,5.69,0,0,1,1,.1l.09,0a3.35,3.35,0,0,1,1.92,1.12V47.13h1.68V57.22h-1.68V56a3.28,3.28,0,0,1-1.89,1.12l-.11,0a5.94,5.94,0,0,1-2.06,0Zm-2-5a3.64,3.64,0,0,0,.77,2.51,2.92,2.92,0,0,0,2.25.86,2.89,2.89,0,0,0,2.25-.86,3.64,3.64,0,0,0,.78-2.5v0a3.61,3.61,0,0,0-.78-2.49,3.34,3.34,0,0,0-4.5,0A3.62,3.62,0,0,0,202.06,52.17Z" transform="translate(-1.78 -0.84)"/><path id="_Compound_Path_19" data-name="&lt;Compound Path&gt;" class="cls-5" d="M214.22,42.17v15h-1.68v-15Z" transform="translate(-1.78 -0.84)"/><path id="_Compound_Path_20" data-name="&lt;Compound Path&gt;" class="cls-5" d="M116.6,67.4h1.67V82.46H116.6Z" transform="translate(-1.78 -0.84)"/><path id="_Compound_Path_21" data-name="&lt;Compound Path&gt;" class="cls-5" d="M123,82.46h-1.68V72.37H123v.93a2.72,2.72,0,0,1,.67-.5,4.57,4.57,0,0,1,3.87,0,4,4,0,0,1,1.73,1.77,6.16,6.16,0,0,1,.61,2.84v5h-1.67v-5a4,4,0,0,0-.68-2.51,2.27,2.27,0,0,0-1.92-.87,2.32,2.32,0,0,0-1.89.81,3.71,3.71,0,0,0-.72,2.32Z" transform="translate(-1.78 -0.84)"/><path id="_Compound_Path_22" data-name="&lt;Compound Path&gt;" class="cls-5" d="M132.83,82.46V74h-1.48V72.36h1.48a5.2,5.2,0,0,1,1.23-3.53,4.39,4.39,0,0,1,3.22-1.43v1.68a2.77,2.77,0,0,0-2.05.92,3.63,3.63,0,0,0-.73,2.36h1.35V74H134.5v8.43Z" transform="translate(-1.78 -0.84)"/><path id="_Compound_Path_23" data-name="&lt;Compound Path&gt;" class="cls-5" d="M146.33,77.41a5.17,5.17,0,0,1-1.28,3.67,4.94,4.94,0,0,1-6.85,0,5.92,5.92,0,0,1,0-7.35,5,5,0,0,1,6.85,0A5.22,5.22,0,0,1,146.33,77.41Zm-7.73,0a3.67,3.67,0,0,0,.77,2.5,3.36,3.36,0,0,0,4.51,0,4.46,4.46,0,0,0,0-5,3.36,3.36,0,0,0-4.51,0A3.69,3.69,0,0,0,138.6,77.41Z" transform="translate(-1.78 -0.84)"/><path id="_Compound_Path_24" data-name="&lt;Compound Path&gt;" class="cls-5" d="M150.21,82.46h-1.67V72.38h1.67V73.6a3.57,3.57,0,0,1,1.89-1.12l.11,0a6.27,6.27,0,0,1,.77-.08v1.68a2.71,2.71,0,0,0-2,.86,3.53,3.53,0,0,0-.78,2.24Z" transform="translate(-1.78 -0.84)"/><path id="_Compound_Path_25" data-name="&lt;Compound Path&gt;" class="cls-5" d="M156.13,82.46h-1.67V72.37h1.67v.93a3.16,3.16,0,0,1,.67-.5,4.59,4.59,0,0,1,3.88,0,3.8,3.8,0,0,1,1.61,1.57,3.16,3.16,0,0,1,1.41-1.57,4.17,4.17,0,0,1,1.92-.43,4.23,4.23,0,0,1,1.94.43,3.9,3.9,0,0,1,1.73,1.77,6.16,6.16,0,0,1,.62,2.84v5h-1.68v-5a4.05,4.05,0,0,0-.67-2.51,2.58,2.58,0,0,0-3.81-.06,3.73,3.73,0,0,0-.73,2.32v5.3h-1.67v-5a4.05,4.05,0,0,0-.68-2.51,2.58,2.58,0,0,0-3.81-.06,3.77,3.77,0,0,0-.73,2.32Z" transform="translate(-1.78 -0.84)"/><path id="_Compound_Path_26" data-name="&lt;Compound Path&gt;" class="cls-5" d="M175.79,82.36l-.11,0a4.13,4.13,0,0,1-2.62-1.65,6.18,6.18,0,0,1,0-6.57,4.2,4.2,0,0,1,2.64-1.65l.11,0a6.43,6.43,0,0,1,1-.08,5.69,5.69,0,0,1,1,.09l.09,0a3.41,3.41,0,0,1,1.92,1.12V72.37h1.67V82.46h-1.67V81.22A3.33,3.33,0,0,1,178,82.34l-.11,0a5.71,5.71,0,0,1-1,.1A5.62,5.62,0,0,1,175.79,82.36Zm-2-5a3.62,3.62,0,0,0,.77,2.5,2.87,2.87,0,0,0,2.25.87,2.83,2.83,0,0,0,2.24-.87,3.56,3.56,0,0,0,.79-2.49v0a3.57,3.57,0,0,0-.79-2.5,2.83,2.83,0,0,0-2.24-.87,2.87,2.87,0,0,0-2.25.87A3.64,3.64,0,0,0,173.8,77.41Z" transform="translate(-1.78 -0.84)"/><path id="_Compound_Path_27" data-name="&lt;Compound Path&gt;" class="cls-5" d="M185.28,74.24l-1.54-.17V72.4l1.54.18V69h1.66v3.58l1.54-.18v1.67l-1.54.17v5.15c0,.92.41,1.39,1.22,1.39h.31v1.68h-.31a2.76,2.76,0,0,1-2.1-.85,3.09,3.09,0,0,1-.79-2.22V74.24Z" transform="translate(-1.78 -0.84)"/><path id="_Compound_Path_28" data-name="&lt;Compound Path&gt;" class="cls-5" d="M191.63,70.5a.86.86,0,0,1-.65-.28.88.88,0,0,1-.29-.67.92.92,0,0,1,.29-.67.89.89,0,0,1,.65-.27.94.94,0,0,1,1,.94,1,1,0,0,1-1,1Zm-.82,1.86h1.66v10.1h-1.66Z" transform="translate(-1.78 -0.84)"/><path id="_Compound_Path_29" data-name="&lt;Compound Path&gt;" class="cls-5" d="M203.6,80.16a4.1,4.1,0,0,1-1.65,1.7,4.91,4.91,0,0,1-2.45.6,4.43,4.43,0,0,1-3.42-1.38,5.92,5.92,0,0,1,0-7.35,4.46,4.46,0,0,1,3.42-1.37,4.88,4.88,0,0,1,2.44.6,4.06,4.06,0,0,1,1.64,1.67l-1.52.7A2.72,2.72,0,0,0,199.5,74a2.87,2.87,0,0,0-2.25.87,4.46,4.46,0,0,0,0,5,2.87,2.87,0,0,0,2.25.87,2.7,2.7,0,0,0,2.57-1.32Z" transform="translate(-1.78 -0.84)"/><path id="_Compound_Path_30" data-name="&lt;Compound Path&gt;" class="cls-5" d="M212.62,79.46a2.64,2.64,0,0,1-.87,2,4.2,4.2,0,0,1-3,1,4.46,4.46,0,0,1-2.82-.81,2.65,2.65,0,0,1-1-1.77l1.67-.14c.17.69.89,1,2.17,1,1.47,0,2.2-.44,2.2-1.32s-.73-1.33-2.2-1.33a4,4,0,0,1-2.88-.94,2.69,2.69,0,0,1,0-3.89,4,4,0,0,1,2.88-.94,4.22,4.22,0,0,1,2.67.76,2.59,2.59,0,0,1,1,1.68l-1.68.12c-.18-.59-.84-.89-2-.89a2.58,2.58,0,0,0-1.68.44,1.32,1.32,0,0,0-.29.39,1,1,0,0,0-.07.39,1,1,0,0,0,.07.38,1.11,1.11,0,0,0,.29.39,2.59,2.59,0,0,0,1.68.43,4.2,4.2,0,0,1,3,1A2.66,2.66,0,0,1,212.62,79.46Z" transform="translate(-1.78 -0.84)"/></g></svg>