<?xml version="1.0" standalone="no"?>
<!DOCTYPE svg PUBLIC "-//W3C//DTD SVG 20010904//EN"
 "http://www.w3.org/TR/2001/REC-SVG-20010904/DTD/svg10.dtd">
<svg version="1.0" xmlns="http://www.w3.org/2000/svg"
 width="500.000000pt" height="500.000000pt" viewBox="0 0 500.000000 500.000000"
 preserveAspectRatio="xMidYMid meet">
<metadata>
Created by potrace 1.11, written by Peter Selinger 2001-2013
</metadata>
<g transform="translate(0.000000,500.000000) scale(0.100000,-0.100000)"
fill="#000000" stroke="none">
<path d="M2350 4887 c-3 -2 -43 -7 -90 -11 -95 -7 -97 -7 -263 -41 -200 -41
-464 -138 -628 -230 -33 -19 -63 -35 -66 -35 -12 0 -225 -148 -306 -214 -213
-171 -422 -413 -554 -641 -107 -184 -213 -434 -249 -584 -2 -9 -10 -45 -19
-81 -46 -185 -59 -313 -59 -555 0 -197 5 -261 30 -405 25 -140 83 -355 114
-425 5 -11 19 -45 30 -75 32 -82 121 -255 180 -351 267 -428 673 -769 1135
-954 114 -46 235 -86 235 -79 0 3 9 0 19 -6 42 -22 262 -63 431 -80 86 -9 388
-6 470 4 403 51 736 171 1058 383 314 207 592 508 773 838 155 282 244 561
286 900 10 81 10 423 0 510 -42 358 -154 687 -335 985 -43 71 -167 249 -181
260 -3 3 -30 33 -59 67 -146 170 -342 338 -540 462 -76 48 -312 171 -327 171
-4 0 -21 7 -38 15 -71 32 -270 95 -372 116 -33 7 -62 13 -65 14 -9 2 -145 24
-185 30 -50 7 -419 17 -425 12z"/>
</g>
</svg>
